<?xml version="1.0" encoding="UTF-8"?>
<!-- This file is generated by npm run build:icons -->
<svg xmlns="http://www.w3.org/2000/svg" xmlns:xlink="http://www.w3.org/1999/xlink" width="0" height="0">
<defs>
<symbol viewBox="0 0 24 24" fill="none" id="cart">
	<desc>
			Created with Pixso.
	</desc>
	<defs>
		<clipPath id="clip8_1057">
			<rect id="Shopping bag" width="24.000000" height="24.000000" fill="white" fill-opacity="0"></rect>
		</clipPath>
	</defs>
	<g clip-path="url(#clip8_1057)">
		<path id="Vector" d="M7.78 15.5L20.48 15.5C20.79 15.5 21.07 15.29 21.16 14.99L23.97 5.19C24.03 4.98 23.99 4.75 23.85 4.57C23.72 4.4 23.51 4.3 23.29 4.3L6.15 4.3L5.65 2.04C5.58 1.72 5.29 1.5 4.96 1.5L0.7 1.5C0.31 1.5 0 1.81 0 2.19C0 2.58 0.31 2.89 0.7 2.89L4.4 2.89L6.94 14.27C6.19 14.59 5.67 15.33 5.67 16.2C5.67 17.35 6.61 18.29 7.78 18.29L20.48 18.29C20.87 18.29 21.18 17.98 21.18 17.6C21.18 17.21 20.87 16.9 20.48 16.9L7.78 16.9C7.39 16.9 7.07 16.58 7.07 16.2C7.07 15.81 7.39 15.5 7.78 15.5Z" fill="#FFFFFF" fill-opacity="1.000000" fill-rule="nonzero"></path>
		<path id="Vector" d="M7.07 20.4C7.07 21.55 8.02 22.5 9.18 22.5C10.35 22.5 11.29 21.55 11.29 20.4C11.29 19.24 10.35 18.29 9.18 18.29C8.02 18.29 7.07 19.24 7.07 20.4Z" fill="#FFFFFF" fill-opacity="1.000000" fill-rule="nonzero"></path>
		<path id="Vector" d="M16.96 20.4C16.96 21.55 17.91 22.5 19.07 22.5C20.24 22.5 21.18 21.55 21.18 20.4C21.18 19.24 20.24 18.29 19.07 18.29C17.91 18.29 16.96 19.24 16.96 20.4Z" fill="#FFFFFF" fill-opacity="1.000000" fill-rule="nonzero"></path>
	</g>
</symbol>
<symbol viewBox="0 0 24 24" fill="none" id="close">
	<desc>
			Created with Pixso.
	</desc>
	<defs>
		<clipPath id="clip236_24686">
			<rect id="Cross" width="24.000000" height="24.000000" fill="white" fill-opacity="0"></rect>
		</clipPath>
	</defs>
	<g clip-path="url(#clip236_24686)">
		<path id="Union" d="M1.33 0.22C1.02 -0.08 0.53 -0.08 0.22 0.22C-0.08 0.53 -0.08 1.02 0.22 1.33L10.89 12L0.22 22.66C-0.08 22.97 -0.08 23.46 0.22 23.77C0.53 24.07 1.02 24.07 1.33 23.77L12 13.1L22.66 23.77C22.97 24.07 23.46 24.07 23.77 23.77C24.07 23.46 24.07 22.97 23.77 22.66L13.1 12L23.77 1.33C24.07 1.02 24.07 0.53 23.77 0.22C23.46 -0.08 22.97 -0.08 22.66 0.22L12 10.89L1.33 0.22Z" fill="#A5A5A5" fill-opacity="1.000000" fill-rule="evenodd"></path>
	</g>
</symbol>
<symbol viewBox="0 0 33 32" fill="none" id="combo">
<g clip-path="url(#clip0_9545_318)">
<mask id="mask0_9545_318" style="mask-type:alpha" maskUnits="userSpaceOnUse" x="0" y="0" width="17" height="32">
<rect x="0.5" width="16.4" height="32" fill="#C4C4C4"></rect>
</mask>
<g mask="url(#mask0_9545_318)">
<path d="M13.8399 28.8447C13.5891 28.8447 13.3367 28.812 13.0883 28.7454C12.2508 28.5209 11.5641 27.9391 11.2043 27.1491C10.9047 26.4907 10.2184 26.0962 9.50159 26.165C8.63596 26.2467 7.79143 25.9439 7.17854 25.3302C6.56526 24.7163 6.26174 23.8689 6.34495 23.005C6.35906 22.8581 6.34919 22.7138 6.32639 22.5728L2.96057 24.5179C5.69607 28.8587 10.4533 31.7977 15.9 32V28.1057C15.7666 28.1564 15.6368 28.22 15.5168 28.3057C15.0203 28.6603 14.4348 28.8447 13.8399 28.8447Z" fill="#FF7010"></path>
<path d="M13.3988 4.41489C12.9085 4.54646 12.507 4.88682 12.2964 5.34917C11.7847 6.47387 10.6085 7.1503 9.38667 7.03085C8.88081 6.98217 8.38589 7.15988 8.02729 7.5192C7.66831 7.87833 7.49058 8.37431 7.5394 8.87987C7.57832 9.28433 7.52397 9.67963 7.40356 10.0499L15.9 14.96V5.13955C15.5194 5.05878 15.1502 4.90827 14.8199 4.67236C14.407 4.37715 13.8886 4.2839 13.3988 4.41489ZM13.5669 10.9151C12.6613 11.4385 11.5032 11.1279 10.9803 10.2214C10.4575 9.31486 10.7677 8.1557 11.6734 7.63232C12.5791 7.10895 13.7371 7.41955 14.26 8.32605C14.7829 9.23257 14.4726 10.3917 13.5669 10.9151Z" fill="#FF7010"></path>
<path d="M5.36172 21.3005C4.57266 20.941 3.99141 20.2539 3.7668 19.4156C3.54219 18.5771 3.70234 17.6909 4.20625 16.9843C4.62578 16.3957 4.62578 15.6047 4.20625 15.0163C3.70234 14.3095 3.54219 13.4233 3.7668 12.5848C3.99141 11.7465 4.57266 11.0594 5.36172 10.6997C5.4959 10.6385 5.61582 10.5578 5.72637 10.4676L2.35801 8.521C1.17388 10.7551 0.5 13.2999 0.5 16.0002C0.5 18.7005 1.17388 21.2453 2.35801 23.4794L5.72647 21.5328C5.61587 21.4425 5.4959 21.3618 5.36172 21.3005Z" fill="#FF7010"></path>
<path d="M4.92584 19.1043C5.05709 19.5948 5.39732 19.9969 5.85943 20.2073C6.22872 20.3758 6.54351 20.6205 6.80372 20.91L15.3002 16L6.80367 11.0898C6.54351 11.3793 6.22867 11.624 5.85943 11.7924C5.39732 12.003 5.05709 12.4051 4.92584 12.8956C4.79459 13.3861 4.88834 13.9048 5.18287 14.3183C5.90044 15.3241 5.90044 16.6758 5.18287 17.6818C4.88834 18.0951 4.79459 18.6138 4.92584 19.1043ZM8.74048 14.1046C9.78624 14.1046 10.634 14.9532 10.634 16C10.634 17.0467 9.78624 17.8953 8.74048 17.8953C7.69468 17.8953 6.84693 17.0467 6.84693 16C6.84693 14.9532 7.69468 14.1046 8.74048 14.1046Z" fill="#FF7010"></path>
<path d="M2.96057 7.48218L6.32639 9.42727C6.34924 9.28622 6.35906 9.14184 6.34495 8.9949C6.26174 8.13119 6.56526 7.28371 7.17854 6.66984C7.79182 6.05598 8.63713 5.75237 9.50198 5.83506C10.2172 5.90564 10.9051 5.50897 11.2043 4.85132C11.5641 4.06111 12.2508 3.47931 13.0883 3.25468C13.9262 3.03005 14.811 3.19017 15.5168 3.69436C15.6368 3.78003 15.7666 3.84364 15.9 3.89438V0C10.4533 0.202316 5.69607 3.14139 2.96057 7.48218Z" fill="#FF7010"></path>
<path d="M7.5394 23.12C7.49058 23.6257 7.66831 24.1217 8.02729 24.4808C8.38589 24.84 8.88511 25.0163 9.38628 24.9692C10.6191 24.8495 11.7851 25.5267 12.2964 26.6509C12.507 27.113 12.9085 27.4536 13.3988 27.5851C13.8882 27.7165 14.407 27.6229 14.8199 27.3277C15.1502 27.0918 15.5194 26.9412 15.9 26.8604V17.04L7.40356 21.9501C7.52397 22.3203 7.57832 22.7156 7.5394 23.12ZM10.9803 21.7786C11.5032 20.8721 12.6613 20.5615 13.5669 21.0849C14.4726 21.6083 14.7829 22.7675 14.26 23.674C13.7371 24.5805 12.5791 24.8911 11.6734 24.3677C10.7677 23.8443 10.4575 22.6852 10.9803 21.7786Z" fill="#FF7010"></path>
</g>
<path d="M30.4174 26.2613C29.7074 24.896 29.63 23.292 30.2074 21.8607C30.8347 20.3027 31.1667 18.506 31.1667 16.6667C31.1667 13.522 30.2894 11.5913 29.44 9.724C28.6807 8.05333 27.968 6.45667 27.856 3.99533C28.2134 3.98267 28.5 3.69333 28.5 3.33333C28.5 2.96533 28.202 2.66667 27.8334 2.66667V0.666667C27.8334 0.298667 27.5354 0 27.1667 0H21.8334C21.4647 0 21.1667 0.298667 21.1667 0.666667V2.66667C20.798 2.66667 20.5 2.96533 20.5 3.33333C20.5 3.69333 20.7867 3.98267 21.144 3.99533C21.032 6.45667 20.3194 8.054 19.56 9.724C18.7114 11.5913 17.8334 13.522 17.8334 16.6667C17.8334 18.506 18.1654 20.3027 18.7927 21.8613C19.3694 23.2933 19.2927 24.8973 18.5827 26.262C18.0927 27.2033 17.8334 28.2653 17.8334 29.3333C17.8334 30.0827 17.9634 30.83 18.22 31.5553C18.314 31.822 18.566 32 18.848 32H30.1507C30.4334 32 30.6847 31.822 30.7787 31.556C31.0367 30.8313 31.1667 30.0833 31.1667 29.3333C31.1667 28.2653 30.908 27.2033 30.4174 26.2613C30.4174 26.262 30.4174 26.262 30.4174 26.2613ZM26.514 4C26.5334 4.47467 26.58 4.91133 26.6374 5.33333H22.3634C22.4207 4.91133 22.4674 4.47467 22.4867 4H26.514ZM28.9654 12C29.1294 12.424 29.2774 12.8653 29.4047 13.3333H19.5954C19.7227 12.8653 19.8707 12.424 20.0347 12H28.9654ZM29.4074 20C29.2874 20.46 29.15 20.9087 28.9807 21.3333H20.02C19.8507 20.9087 19.7134 20.46 19.5934 20H29.4074Z" fill="#FF7010"></path>
</g>
<defs>
<clipPath id="clip0_9545_318">
<rect width="32" height="32" fill="white" transform="translate(0.5)"></rect>
</clipPath>
</defs>
</symbol>
<symbol viewBox="0 0 26 32" fill="none" id="deserts">
	<desc>
			Created with Pixso.
	</desc>
	<defs></defs>
	<path id="Vector" d="M14.16 15.79C13.72 15.34 13.12 15.09 12.49 15.09C11.87 15.09 11.27 15.34 10.82 15.79C10.82 15.79 9.51 17.12 9.14 17.42L10.29 32L14.71 32L15.86 17.43C15.64 17.31 14.16 15.79 14.16 15.79Z" fill="#FF7010" fill-opacity="1.000000" fill-rule="nonzero"></path>
	<path id="Vector" d="M5.87 15.64C5.45 15.21 4.88 14.97 4.29 14.94C3.69 14.92 3.11 15.13 2.66 15.52L0.36 17.48L2.57 29.94C2.67 30.52 2.97 31.04 3.41 31.41C3.85 31.78 4.4 31.99 4.97 31.99L8.98 31.99L7.84 17.51C7.58 17.41 5.87 15.64 5.87 15.64Z" fill="#FF7010" fill-opacity="1.000000" fill-rule="nonzero"></path>
	<path id="Vector" d="M11.97 2.68C12.13 2.74 12.31 2.78 12.5 2.79C12.72 2.79 12.95 2.74 13.15 2.63C13.35 2.52 13.52 2.35 13.64 2.16C13.79 1.93 13.87 1.66 13.87 1.39C13.87 1.18 13.82 0.97 13.73 0.78C13.64 0.59 13.5 0.42 13.34 0.29C13.17 0.16 12.98 0.07 12.78 0.02C12.57 -0.02 12.36 -0.01 12.16 0.04C11.96 0.09 11.77 0.19 11.61 0.33C11.45 0.46 11.32 0.64 11.24 0.83C11.16 1.03 11.12 1.24 11.12 1.45C11.13 1.66 11.19 1.87 11.29 2.06C11.44 2.33 11.68 2.55 11.97 2.68Z" fill="#FF7010" fill-opacity="1.000000" fill-rule="nonzero"></path>
	<path id="Vector" d="M20.4 8.51L20.03 8.42L19.94 8.04C19.35 5.7 17.26 3.8 14.56 3.15C14.32 3.47 14 3.72 13.64 3.89C13.28 4.06 12.89 4.14 12.49 4.12C11.4 4.12 10.49 3.2 10.43 3.14C7.73 3.79 5.65 5.67 5.06 8.02L4.98 8.42L4.6 8.52C3.02 8.94 1.66 9.96 0.8 11.37C-0.07 12.78 -0.37 14.47 -0.04 16.1L1.81 14.5C2.52 13.9 3.41 13.58 4.33 13.62C5.25 13.65 6.13 14.03 6.78 14.68L8.42 16.3L9.92 14.82C10.26 14.48 10.66 14.21 11.1 14.03C11.54 13.84 12.02 13.75 12.49 13.76C13.46 13.77 14.39 14.16 15.08 14.85L16.55 16.31L18.22 14.67C18.88 14.02 19.75 13.64 20.67 13.61C21.58 13.58 22.48 13.9 23.18 14.5L25.03 16.1C25.36 14.47 25.06 12.77 24.2 11.36C23.34 9.95 21.98 8.93 20.4 8.51Z" fill="#FF7010" fill-opacity="1.000000" fill-rule="nonzero"></path>
	<path id="Vector" d="M19.13 15.62C19.13 15.62 17.37 17.4 17.16 17.48L16.02 31.98L20.03 31.98C20.6 31.99 21.15 31.78 21.59 31.41C22.03 31.04 22.33 30.52 22.43 29.94L23.53 23.75L24.62 17.48L22.32 15.51C21.87 15.12 21.3 14.92 20.71 14.94C20.12 14.96 19.55 15.2 19.13 15.62Z" fill="#FF7010" fill-opacity="1.000000" fill-rule="nonzero"></path>
</symbol>
<symbol viewBox="0 0 12 7" fill="none" id="downArrow">
	<desc>
			Created with Pixso.
	</desc>
	<defs></defs>
	<path id="Left_Arrow_4_" d="M12 0.26C12 0.4 11.94 0.55 11.84 0.66L6.38 6.28C6.17 6.5 5.82 6.5 5.61 6.28L0.15 0.66C-0.06 0.44 -0.06 0.08 0.15 -0.14C0.37 -0.36 0.71 -0.36 0.93 -0.14L6 5.09L11.06 -0.14C11.28 -0.36 11.62 -0.36 11.84 -0.14C11.94 -0.03 12 0.11 12 0.26Z" fill="#191919" fill-opacity="1.000000" fill-rule="nonzero"></path>
</symbol>
<symbol viewBox="0 0 18 32" fill="none" id="drinks">
	<desc>
			Created with Pixso.
	</desc>
	<defs></defs>
	<path id="Vector" d="M9.6 6.51L9.6 3.68L15.59 2.25C16.14 2.12 16.48 1.56 16.33 1.02L16.3 0.92C16.16 0.4 15.63 0.09 15.11 0.21L8.16 1.83C7.71 1.94 7.39 2.34 7.39 2.81L7.39 6.51L0.16 6.51C-0.39 6.51 -0.84 6.96 -0.84 7.51L-0.84 11.11L17.83 11.11L17.83 7.51C17.83 6.96 17.38 6.51 16.83 6.51L9.6 6.51Z" fill="#FF7010" fill-opacity="1.000000" fill-rule="nonzero"></path>
	<path id="Vector" d="M-0.75 12.88L1.79 30.15C1.94 31.22 2.89 32 3.96 32L12.92 32C14.02 32 14.94 31.22 15.09 30.15L17.63 12.88L-0.75 12.88Z" fill="#FF7010" fill-opacity="1.000000" fill-rule="nonzero"></path>
</symbol>
<symbol viewBox="0 0 20 20" fill="none" id="facebooksvg">
	<desc>
			Created with Pixso.
	</desc>
	<defs></defs>
	<path id="Subtract" d="M8.33331 20C3.61108 19.1619 0 15.0278 0 10.0559C0 4.52515 4.5 0 10 0C15.5 0 20 4.52515 20 10.0559C20 15.0278 16.3889 19.1619 11.6667 20L11.611 19.9553C11.6296 19.9517 11.6481 19.948 11.6667 19.9443L11.6667 12.8494L13.8889 12.8494L14.3333 10.0559L11.6667 10.0559L11.6667 8.10059C11.6667 7.3186 11.9445 6.7041 13.1667 6.7041L14.4445 6.7041L14.4445 4.13428C13.7222 4.02246 12.9445 3.91064 12.2222 3.91064C9.94446 3.91064 8.33331 5.30737 8.33331 7.82129L8.33331 10.0559L5.83331 10.0559L5.83331 12.8494L8.33331 12.8494L8.33331 19.9443C8.35187 19.948 8.37042 19.9517 8.38898 19.9553L8.33331 20Z" clip-rule="evenodd" fill="#FF7010" fill-opacity="1.000000" fill-rule="evenodd"></path>
</symbol>
<symbol viewBox="0 0 16 16" fill="none" id="filter">
	<desc>
			Created with Pixso.
	</desc>
	<defs>
		<clipPath id="clip67_3425">
			<rect id="Filter" width="16.000000" height="16.000000" fill="white" fill-opacity="0"></rect>
		</clipPath>
	</defs>
	<g clip-path="url(#clip67_3425)">
		<path id="Vector" d="M6.33 16C6.27 16 6.21 15.98 6.16 15.95C6.06 15.89 6 15.78 6 15.66L6 8.93C6 8.64 5.87 8.37 5.66 8.18L0.55 3.64C0.2 3.33 0 2.87 0 2.39L0 1C0 0.44 0.44 0 1 0L15 0C15.55 0 16 0.44 16 1L16 2.39C16 2.87 15.79 3.33 15.44 3.64L10.33 8.18C10.12 8.37 10 8.64 10 8.93L10 13.28C10 13.63 9.81 13.96 9.51 14.14L6.5 15.95C6.45 15.98 6.39 16 6.33 16ZM1 0.66C0.81 0.66 0.66 0.81 0.66 1L0.66 2.39C0.66 2.68 0.78 2.96 1 3.14L6.1 7.68C6.46 8 6.66 8.45 6.66 8.93L6.66 15.07L9.17 13.57C9.27 13.51 9.33 13.4 9.33 13.28L9.33 8.93C9.33 8.45 9.53 8 9.89 7.68L14.99 3.15C15.21 2.96 15.33 2.68 15.33 2.39L15.33 1C15.33 0.81 15.18 0.66 15 0.66L1 0.66Z" fill="#FF7010" fill-opacity="1.000000" fill-rule="nonzero"></path>
	</g>
</symbol>
<symbol viewBox="0 0 20 20" fill="none" id="instagram">
	<desc>
			Created with Pixso.
	</desc>
	<defs></defs>
	<path id="Vector" d="M10 0C7.28 0 6.94 0.02 5.87 0.06C4.81 0.11 4.08 0.28 3.45 0.53C2.78 0.78 2.17 1.17 1.67 1.68C1.17 2.18 0.77 2.79 0.52 3.45C0.27 4.09 0.1 4.82 0.05 5.88C0.01 6.94 0 7.29 0 10C0 12.71 0.01 13.06 0.05 14.12C0.1 15.19 0.27 15.91 0.52 16.55C0.77 17.22 1.17 17.82 1.67 18.32C2.17 18.83 2.78 19.22 3.45 19.47C4.08 19.72 4.81 19.89 5.87 19.94C6.94 19.99 7.28 20 10 20C12.71 20 13.05 19.99 14.12 19.94C15.18 19.89 15.91 19.72 16.55 19.47C17.22 19.22 17.82 18.83 18.32 18.32C18.83 17.82 19.22 17.22 19.47 16.55C19.72 15.91 19.89 15.19 19.94 14.12C19.99 13.06 20 12.72 20 10C20 7.29 19.99 6.94 19.94 5.88C19.89 4.82 19.72 4.09 19.47 3.45C19.22 2.79 18.83 2.18 18.32 1.68C17.82 1.17 17.22 0.78 16.55 0.53C15.91 0.28 15.18 0.11 14.12 0.06C12.75 0 11.37 -0.02 10 0ZM10 1.8C12.67 1.8 12.98 1.82 14.04 1.86C15.01 1.91 15.54 2.07 15.89 2.21C16.36 2.39 16.69 2.6 17.04 2.96C17.38 3.28 17.63 3.67 17.79 4.1C17.93 4.46 18.09 4.99 18.14 5.96C18.19 7.02 18.19 7.33 18.19 10C18.19 12.67 18.19 12.99 18.14 14.04C18.09 15.02 17.93 15.54 17.79 15.89C17.63 16.33 17.38 16.72 17.04 17.04C16.72 17.38 16.33 17.63 15.89 17.79C15.54 17.93 15.01 18.09 14.04 18.14C12.98 18.19 12.66 18.2 10 18.2C7.33 18.2 7.01 18.19 5.95 18.14C4.98 18.09 4.45 17.93 4.1 17.79C3.66 17.63 3.27 17.38 2.95 17.04C2.61 16.72 2.36 16.33 2.2 15.89C2.06 15.54 1.9 15.02 1.85 14.04C1.8 12.69 1.78 11.35 1.8 10C1.8 7.33 1.81 7.02 1.85 5.96C1.9 4.99 2.06 4.46 2.2 4.1C2.36 3.67 2.62 3.28 2.95 2.95C3.27 2.62 3.66 2.36 4.1 2.2C4.45 2.07 4.98 1.91 5.96 1.86C7.01 1.82 7.33 1.8 10 1.8ZM10 4.87C8.64 4.87 7.33 5.41 6.37 6.37C5.4 7.33 4.86 8.64 4.86 10C4.86 11.36 5.4 12.67 6.37 13.63C7.33 14.59 8.64 15.13 10 15.13C11.36 15.13 12.67 14.59 13.63 13.63C14.59 12.67 15.13 11.36 15.13 10C15.13 8.64 14.59 7.33 13.63 6.37C12.67 5.41 11.36 4.87 10 4.87ZM10 13.34C9.11 13.34 8.27 12.99 7.64 12.36C7.02 11.74 6.66 10.89 6.66 10C6.66 9.12 7.02 8.27 7.64 7.65C8.27 7.02 9.11 6.67 10 6.67C10.88 6.67 11.73 7.02 12.36 7.65C12.98 8.27 13.33 9.12 13.33 10C13.33 10.89 12.98 11.74 12.36 12.36C11.73 12.99 10.88 13.34 10 13.34ZM16.54 4.67C16.54 4.35 16.41 4.05 16.18 3.82C15.96 3.6 15.65 3.47 15.33 3.47C15.02 3.47 14.71 3.6 14.49 3.82C14.26 4.05 14.13 4.35 14.13 4.67C14.13 4.99 14.26 5.29 14.49 5.52C14.71 5.74 15.02 5.87 15.33 5.87C15.65 5.87 15.96 5.74 16.18 5.52C16.41 5.29 16.54 4.99 16.54 4.67Z" fill="#FF7010" fill-opacity="1.000000" fill-rule="nonzero"></path>
</symbol>
<symbol viewBox="0 0 32 32" fill="none" id="logoMain">
<path d="M31.814 0.180314C31.6432 0.0118144 31.3908 -0.0444355 31.165 0.0364394L5.20549 9.29248C4.30361 8.74098 3.15968 8.61186 2.11049 9.0463C0.368934 9.76773 -0.461127 11.7715 0.260246 13.5132C1.96143 17.62 4.41761 21.296 7.56079 24.4392C10.704 27.5824 14.38 30.0386 18.4868 31.7397C18.9133 31.9164 19.3553 32 19.7906 32C21.1328 31.9999 22.409 31.2046 22.9536 29.8894C23.3201 29.0046 23.2855 28.0522 22.9349 27.2344L31.9662 0.827375C32.0439 0.600376 31.9847 0.348876 31.814 0.180314ZM9.1361 9.21805L11.8873 8.23717C12.2103 8.5813 12.3678 9.05505 12.3047 9.53417C12.2491 9.95604 12.0326 10.3311 11.695 10.5902C11.3575 10.8492 10.9395 10.9612 10.5173 10.9057C10.0955 10.8502 9.72048 10.6337 9.46142 10.2961C9.22273 9.98504 9.10917 9.60555 9.1361 9.21805ZM21.7988 29.411C21.3411 30.5159 20.0698 31.0424 18.9651 30.5847C10.9627 27.27 4.72999 21.0373 1.41518 13.0348C1.19349 12.4996 1.19349 11.9102 1.41518 11.3749C1.63687 10.8397 2.05368 10.4229 2.58887 10.2012C3.12405 9.97954 3.71355 9.97954 4.24874 10.2012C4.78393 10.4229 5.20074 10.8397 5.42242 11.3749C6.84123 14.8003 8.88998 17.8665 11.5117 20.4882C14.1335 23.11 17.1996 25.1586 20.625 26.5775C21.7299 27.0351 22.2565 28.3063 21.7988 29.411ZM27.3514 10.458C27.2949 10.4567 27.2383 10.4534 27.1818 10.446C26.7599 10.3905 26.3849 10.174 26.1259 9.83642C25.8669 9.49886 25.7548 9.08055 25.8103 8.65873C25.925 7.78786 26.7266 7.17274 27.5978 7.28724C27.8665 7.32261 28.1188 7.42686 28.334 7.58542L27.3514 10.458ZM28.7494 6.37018C28.4449 6.20436 28.1104 6.09393 27.7609 6.04793C26.2064 5.84274 24.7756 6.9413 24.571 8.49561C24.4719 9.24848 24.6719 9.99492 25.1342 10.5974C25.5795 11.1777 26.217 11.5569 26.9361 11.6725L25.6939 15.3049L24.2653 14.2087C23.9914 13.9987 23.599 14.0502 23.389 14.324C23.1788 14.5979 23.2305 14.9902 23.5043 15.2003L25.2671 16.553L22.0363 26.0001C21.7653 25.7645 21.4532 25.5674 21.1036 25.4226C14.4799 22.6789 9.32117 17.5202 6.57761 10.8965C6.48223 10.6662 6.36373 10.4523 6.22705 10.2553L7.90073 9.65854C7.95917 10.1628 8.15273 10.6438 8.46979 11.057C8.93204 11.6595 9.60135 12.0459 10.3542 12.1449C10.4804 12.1615 10.6061 12.1698 10.7312 12.1698C11.353 12.1698 11.9545 11.9667 12.456 11.5819C13.0586 11.1195 13.4449 10.4503 13.5441 9.69729C13.633 9.02136 13.4753 8.35186 13.1211 7.79724L20.8903 5.02712L21.1847 5.73799C21.2845 5.97868 21.5171 6.12399 21.7624 6.12399C21.8421 6.12399 21.9231 6.10861 22.0013 6.07624C22.3202 5.94418 22.4716 5.57849 22.3396 5.25962L22.0692 4.6068L30.3641 1.64919L28.7494 6.37018Z" fill="#FF7010"></path>
<path d="M6.74992 16.7673C6.74805 16.7643 6.74286 16.7564 6.74086 16.7535C6.54949 16.4665 6.16218 16.3894 5.87499 16.5806C5.5883 16.7715 5.51055 17.1589 5.7003 17.4461C5.81999 17.63 6.02024 17.7303 6.2248 17.7303C6.34055 17.7303 6.45761 17.6981 6.56211 17.631C6.85249 17.4443 6.93655 17.0576 6.74992 16.7673Z" fill="#FF7010"></path>
<path d="M5.79936 15.2146C5.1903 14.1467 4.6428 13.0291 4.17212 11.8929C4.04006 11.5739 3.67424 11.4226 3.35556 11.5547C3.03662 11.6868 2.88525 12.0524 3.01737 12.3713C3.50799 13.5557 4.07874 14.7207 4.71362 15.8338C4.82893 16.0359 5.03993 16.1493 5.25705 16.1493C5.36205 16.1493 5.46849 16.1228 5.56611 16.0671C5.86593 15.8961 5.97043 15.5144 5.79936 15.2146Z" fill="#FF7010"></path>
<path d="M19.5582 7.99923C19.4343 7.98286 19.3085 7.97461 19.1843 7.97461C17.7645 7.97461 16.5538 9.03742 16.3683 10.4468C16.1637 12.001 17.2617 13.432 18.8159 13.6367C18.9398 13.653 19.0656 13.6613 19.1898 13.6613C20.6096 13.6613 21.8202 12.5985 22.0058 11.189C22.2103 9.63479 21.1124 8.20386 19.5582 7.99923ZM20.7665 11.0259C20.6625 11.8157 19.9847 12.4112 19.1898 12.4112C19.12 12.4112 19.049 12.4066 18.9791 12.3973C18.1081 12.2827 17.493 11.4809 17.6076 10.6099C17.7116 9.82017 18.3894 9.22467 19.1843 9.22467C19.2541 9.22467 19.3251 9.22929 19.395 9.23854C20.2659 9.35329 20.8811 10.155 20.7665 11.0259Z" fill="#FF7010"></path>
<path d="M19.3956 15.7734C19.2717 15.757 19.1459 15.7488 19.0217 15.7488C17.6018 15.7488 16.3912 16.8116 16.2057 18.221C16.1065 18.974 16.3065 19.7203 16.7689 20.3229C17.2311 20.9254 17.9003 21.3118 18.6533 21.411C18.7771 21.4273 18.9028 21.4355 19.027 21.4355C20.4468 21.4355 21.6575 20.3726 21.8431 18.9631C22.0478 17.409 20.9498 15.9782 19.3956 15.7734ZM20.6039 18.8001C20.4999 19.5899 19.822 20.1855 19.0272 20.1855C18.9573 20.1855 18.8864 20.1808 18.8165 20.1716C18.3947 20.116 18.0197 19.8995 17.7606 19.5619C17.5015 19.2243 17.3895 18.8061 17.445 18.3841C17.549 17.5944 18.2268 16.9988 19.0217 16.9988C19.0915 16.9988 19.1625 17.0035 19.2324 17.0127C20.1032 17.1274 20.7185 17.9292 20.6039 18.8001Z" fill="#FF7010"></path>
<path d="M15.2734 13.1841L13.3524 12.9312C13.0103 12.8857 12.6962 13.127 12.6511 13.4692C12.606 13.8114 12.8469 14.1253 13.1891 14.1704L15.1101 14.4233C15.1378 14.427 15.1653 14.4288 15.1925 14.4288C15.5013 14.4288 15.7699 14.1998 15.8113 13.8853C15.8565 13.5432 15.6156 13.2292 15.2734 13.1841Z" fill="#FF7010"></path>
<path d="M14.2993 17.7964L14.1297 16.5074C14.0846 16.1651 13.7707 15.9241 13.4285 15.9693C13.0862 16.0144 12.8454 16.3283 12.8904 16.6705L13.0601 17.9595C13.1015 18.2741 13.37 18.503 13.6789 18.503C13.7061 18.503 13.7336 18.5012 13.7612 18.4976C14.1035 18.4525 14.3443 18.1386 14.2993 17.7964Z" fill="#FF7010"></path>
</symbol>
<symbol viewBox="0 0 20 20" fill="none" id="phone">
	<desc>
			Created with Pixso.
	</desc>
	<defs></defs>
	<path id="Vector" d="M4.05 13.29C6.03 15.65 8.41 17.5 11.13 18.82C12.17 19.31 13.55 19.89 15.1 19.99C15.19 19.99 15.28 20 15.38 20C16.42 20 17.25 19.64 17.93 18.91C17.93 18.9 17.94 18.89 17.94 18.88C18.18 18.59 18.46 18.33 18.74 18.06C18.94 17.87 19.14 17.67 19.33 17.48C20.22 16.56 20.22 15.39 19.32 14.5L16.82 12C16.4 11.57 15.89 11.33 15.36 11.33C14.83 11.33 14.31 11.57 13.88 12L12.39 13.48C12.25 13.41 12.11 13.34 11.98 13.27C11.81 13.19 11.66 13.11 11.52 13.02C10.16 12.16 8.93 11.04 7.75 9.61C7.16 8.86 6.76 8.23 6.48 7.58C6.87 7.23 7.24 6.86 7.59 6.5C7.72 6.37 7.85 6.24 7.97 6.12C8.42 5.67 8.67 5.15 8.67 4.62C8.67 4.1 8.43 3.58 7.97 3.13L6.74 1.9C6.59 1.75 6.45 1.61 6.31 1.47C6.04 1.18 5.75 0.89 5.47 0.63C5.04 0.21 4.53 0 4 0C3.47 0 2.97 0.21 2.52 0.64L0.97 2.19C0.4 2.75 0.08 3.43 0.01 4.23C-0.07 5.22 0.12 6.27 0.59 7.54C1.32 9.51 2.42 11.34 4.05 13.29ZM1.03 4.31C1.08 3.76 1.29 3.3 1.69 2.9L3.24 1.36C3.48 1.13 3.74 1.01 4 1.01C4.26 1.01 4.51 1.13 4.75 1.37C5.03 1.63 5.29 1.9 5.57 2.18C5.72 2.33 5.86 2.47 6.01 2.62L7.25 3.86C7.5 4.11 7.64 4.38 7.64 4.63C7.64 4.89 7.5 5.15 7.25 5.41C7.12 5.54 6.99 5.67 6.86 5.8C6.47 6.19 6.11 6.56 5.71 6.91C5.7 6.92 5.7 6.92 5.69 6.93C5.35 7.27 5.4 7.6 5.48 7.85C5.49 7.86 5.49 7.87 5.5 7.88C5.82 8.65 6.26 9.38 6.96 10.25C8.2 11.78 9.52 12.97 10.97 13.89C11.14 14 11.34 14.09 11.52 14.18C11.68 14.27 11.84 14.35 11.97 14.43C11.99 14.44 12 14.45 12.02 14.46C12.16 14.53 12.29 14.56 12.42 14.56C12.75 14.56 12.97 14.35 13.04 14.28L14.6 12.73C14.84 12.49 15.1 12.36 15.36 12.36C15.67 12.36 15.93 12.56 16.1 12.73L18.6 15.23C19.1 15.72 19.1 16.26 18.59 16.79C18.42 16.97 18.23 17.15 18.04 17.34C17.75 17.62 17.44 17.91 17.17 18.24C16.69 18.75 16.12 18.99 15.38 18.99C15.31 18.99 15.24 18.99 15.17 18.98C13.8 18.9 12.53 18.37 11.58 17.91C8.99 16.67 6.72 14.9 4.84 12.65C3.29 10.79 2.24 9.06 1.55 7.2C1.12 6.06 0.96 5.15 1.03 4.31Z" fill="#FF7010" fill-opacity="1.000000" fill-rule="nonzero"></path>
</symbol>
<symbol viewBox="0 0 14 20" fill="none" id="pin">
	<desc>
			Created with Pixso.
	</desc>
	<defs></defs>
	<path id="Vector" d="M6.51 19.73C6.62 19.9 6.8 20 7 20C7.19 20 7.37 19.9 7.48 19.73C8.86 17.65 10.89 15.09 12.31 12.47C13.44 10.38 14 8.6 14 7.03C14 3.15 10.85 0 7 0C3.14 0 0 3.15 0 7.03C0 8.6 0.55 10.38 1.68 12.47C3.09 15.08 5.13 17.66 6.51 19.73ZM7 1.17C10.21 1.17 12.83 3.8 12.83 7.03C12.83 8.4 12.32 10 11.29 11.91C10.07 14.16 8.32 16.45 7 18.37C5.67 16.45 3.92 14.16 2.7 11.91C1.67 10 1.16 8.4 1.16 7.03C1.16 3.8 3.78 1.17 7 1.17Z" fill="#FF7010" fill-opacity="1.000000" fill-rule="nonzero"></path>
	<path id="Vector" d="M7 10.54C8.92 10.54 10.5 8.96 10.5 7.03C10.5 5.09 8.92 3.51 7 3.51C5.07 3.51 3.5 5.09 3.5 7.03C3.5 8.96 5.07 10.54 7 10.54ZM7 4.68C8.28 4.68 9.33 5.73 9.33 7.03C9.33 8.32 8.28 9.37 7 9.37C5.71 9.37 4.66 8.32 4.66 7.03C4.66 5.73 5.71 4.68 7 4.68Z" fill="#FF7010" fill-opacity="1.000000" fill-rule="nonzero"></path>
</symbol>
<symbol viewBox="0 0 32 32" fill="none" id="pizza">
	<desc>
			Created with Pixso.
	</desc>
	<defs></defs>
	<path id="Vector" d="M25.65 23C25.73 23.86 25.43 24.71 24.82 25.33C24.2 25.94 23.36 26.24 22.49 26.16C21.78 26.09 21.09 26.49 20.79 27.14C20.43 27.93 19.74 28.52 18.91 28.74C18.07 28.96 17.18 28.81 16.48 28.3C16.36 28.22 16.23 28.15 16.1 28.1L16.1 32C21.54 31.79 26.3 28.85 29.03 24.51L25.67 22.57C25.65 22.71 25.64 22.85 25.65 23Z" fill="none" fill-opacity="1.000000" fill-rule="nonzero"></path>
	<path id="Vector" d="M12.83 28.84C12.58 28.84 12.33 28.81 12.08 28.74C11.25 28.52 10.56 27.93 10.2 27.14C9.9 26.49 9.21 26.09 8.5 26.16C7.63 26.24 6.79 25.94 6.17 25.33C5.56 24.71 5.26 23.86 5.34 23C5.35 22.85 5.34 22.71 5.32 22.57L1.96 24.51C4.69 28.85 9.45 31.79 14.9 32L14.9 28.1C14.76 28.15 14.63 28.22 14.51 28.3C14.02 28.66 13.43 28.84 12.83 28.84Z" fill="#FF7010" fill-opacity="1.000000" fill-rule="nonzero"></path>
	<path id="Vector" d="M12.39 4.41C11.9 4.54 11.5 4.88 11.29 5.34C10.78 6.47 9.6 7.15 8.38 7.03C7.88 6.98 7.38 7.15 7.02 7.51C6.66 7.87 6.49 8.37 6.53 8.87C6.57 9.28 6.52 9.67 6.4 10.04L14.9 14.96L14.9 5.13C14.51 5.05 14.15 4.9 13.81 4.67C13.4 4.37 12.88 4.28 12.39 4.41ZM12.56 10.91C11.66 11.43 10.5 11.12 9.98 10.22C9.45 9.31 9.76 8.15 10.67 7.63C11.57 7.1 12.73 7.41 13.26 8.32C13.78 9.23 13.47 10.39 12.56 10.91Z" fill="#FF7010" fill-opacity="1.000000" fill-rule="nonzero"></path>
	<path id="Vector" d="M4.36 21.3C3.57 20.94 2.99 20.25 2.76 19.41C2.54 18.57 2.7 17.69 3.2 16.98C3.62 16.39 3.62 15.6 3.2 15.01C2.7 14.3 2.54 13.42 2.76 12.58C2.99 11.74 3.57 11.05 4.36 10.69C4.49 10.63 4.61 10.55 4.72 10.46L1.35 8.52C0.17 10.75 -0.5 13.29 -0.5 16C-0.5 18.7 0.17 21.24 1.35 23.47L4.72 21.53C4.61 21.44 4.49 21.36 4.36 21.3Z" fill="#FF7010" fill-opacity="1.000000" fill-rule="nonzero"></path>
	<path id="Vector" d="M18.91 3.25C19.74 3.47 20.43 4.06 20.79 4.85C21.09 5.5 21.78 5.9 22.49 5.83C23.36 5.75 24.2 6.05 24.82 6.66C25.43 7.28 25.73 8.13 25.65 8.99C25.64 9.14 25.65 9.28 25.67 9.42L29.03 7.48C26.3 3.14 21.54 0.2 16.1 0L16.1 3.89C16.23 3.84 16.36 3.78 16.48 3.69C17.18 3.18 18.07 3.02 18.91 3.25Z" fill="#FF7010" fill-opacity="1.000000" fill-rule="nonzero"></path>
	<path id="Vector" d="M3.92 19.1C4.05 19.59 4.39 19.99 4.85 20.2C5.22 20.37 5.54 20.62 5.8 20.91L14.3 16L5.8 11.08C5.54 11.37 5.22 11.62 4.85 11.79C4.39 12 4.05 12.4 3.92 12.89C3.79 13.38 3.88 13.9 4.18 14.31C4.9 15.32 4.9 16.67 4.18 17.68C3.88 18.09 3.79 18.61 3.92 19.1ZM7.74 14.1C8.78 14.1 9.63 14.95 9.63 16C9.63 17.04 8.78 17.89 7.74 17.89C6.69 17.89 5.84 17.04 5.84 16C5.84 14.95 6.69 14.1 7.74 14.1Z" fill="#FF7010" fill-opacity="1.000000" fill-rule="nonzero"></path>
	<path id="Vector" d="M1.96 7.48L5.32 9.42C5.34 9.28 5.35 9.14 5.34 8.99C5.26 8.13 5.56 7.28 6.17 6.66C6.79 6.05 7.63 5.75 8.5 5.83C9.21 5.9 9.9 5.5 10.2 4.85C10.56 4.06 11.25 3.47 12.08 3.25C12.92 3.03 13.81 3.18 14.51 3.69C14.63 3.78 14.76 3.84 14.9 3.89L14.9 0C9.45 0.2 4.69 3.14 1.96 7.48Z" fill="#FF7010" fill-opacity="1.000000" fill-rule="nonzero"></path>
	<path id="Vector" d="M29.64 8.52L26.27 10.46C26.38 10.55 26.5 10.63 26.63 10.69C27.42 11.05 28 11.74 28.23 12.58C28.45 13.42 28.29 14.3 27.79 15.01C27.37 15.6 27.37 16.39 27.79 16.98C28.29 17.69 28.45 18.57 28.23 19.41C28 20.25 27.42 20.94 26.63 21.3C26.5 21.36 26.38 21.44 26.27 21.53L29.64 23.47C30.82 21.24 31.5 18.7 31.5 16C31.5 13.29 30.82 10.75 29.64 8.52Z" fill="#FF7010" fill-opacity="1.000000" fill-rule="nonzero"></path>
	<path id="Vector" d="M6.53 23.12C6.49 23.62 6.66 24.12 7.02 24.48C7.38 24.83 7.88 25.01 8.38 24.96C9.61 24.84 10.78 25.52 11.29 26.65C11.5 27.11 11.9 27.45 12.39 27.58C12.88 27.71 13.4 27.62 13.81 27.32C14.15 27.09 14.51 26.94 14.9 26.86L14.9 17.04L6.4 21.95C6.52 22.32 6.57 22.71 6.53 23.12ZM9.98 21.77C10.5 20.87 11.66 20.56 12.56 21.08C13.47 21.6 13.78 22.76 13.26 23.67C12.73 24.58 11.57 24.89 10.67 24.36C9.76 23.84 9.45 22.68 9.98 21.77Z" fill="#FF7010" fill-opacity="1.000000" fill-rule="nonzero"></path>
	<path id="Vector" d="M18.6 27.58C19.09 27.45 19.49 27.11 19.7 26.65C20.21 25.52 21.39 24.85 22.61 24.96C23.11 25.01 23.61 24.83 23.97 24.48C24.33 24.12 24.5 23.62 24.46 23.12C24.42 22.71 24.47 22.32 24.59 21.95L16.1 17.04L16.1 26.86C16.48 26.94 16.84 27.09 17.18 27.32C17.59 27.62 18.11 27.71 18.6 27.58ZM18.43 21.08C19.33 20.56 20.49 20.87 21.01 21.77C21.54 22.68 21.23 23.84 20.32 24.36C19.42 24.89 18.26 24.58 17.73 23.67C17.21 22.76 17.52 21.6 18.43 21.08Z" fill="#FF7010" fill-opacity="1.000000" fill-rule="nonzero"></path>
	<path id="Vector" d="M27.07 12.89C26.94 12.4 26.6 12 26.14 11.79C25.77 11.62 25.45 11.37 25.19 11.08L16.69 16L25.19 20.91C25.45 20.62 25.77 20.37 26.14 20.2C26.6 19.99 26.94 19.59 27.07 19.1C27.2 18.61 27.11 18.09 26.81 17.68C26.09 16.67 26.09 15.32 26.81 14.31C27.11 13.9 27.2 13.38 27.07 12.89ZM23.25 17.89C22.21 17.89 21.36 17.04 21.36 16C21.36 14.95 22.21 14.1 23.25 14.1C24.3 14.1 25.15 14.95 25.15 16C25.15 17.04 24.3 17.89 23.25 17.89Z" fill="#FF7010" fill-opacity="1.000000" fill-rule="nonzero"></path>
	<path id="Vector" d="M24.46 8.88C24.5 8.37 24.33 7.87 23.97 7.51C23.61 7.16 23.11 6.98 22.61 7.03C21.38 7.14 20.21 6.47 19.7 5.34C19.49 4.88 19.09 4.54 18.6 4.41C18.11 4.28 17.59 4.37 17.18 4.67C16.84 4.9 16.48 5.05 16.1 5.13L16.1 14.96L24.59 10.04C24.47 9.67 24.42 9.28 24.46 8.88ZM21.01 10.22C20.49 11.12 19.33 11.43 18.43 10.91C17.52 10.39 17.21 9.23 17.73 8.32C18.26 7.41 19.42 7.1 20.32 7.63C21.23 8.15 21.54 9.31 21.01 10.22Z" fill="#FF7010" fill-opacity="1.000000" fill-rule="nonzero"></path>
</symbol>
<symbol viewBox="0 0 24 32" fill="none" id="sale">
	<desc>
			Created with Pixso.
	</desc>
	<defs></defs>
	<path id="Vector" d="M23.43 18.73C23.06 13.96 20.84 10.97 18.88 8.33C17.06 5.89 15.5 3.78 15.5 0.66C15.5 0.41 15.36 0.18 15.13 0.07C14.91 -0.05 14.64 -0.03 14.44 0.12C11.5 2.23 9.04 5.78 8.18 9.17C7.59 11.52 7.51 14.18 7.5 15.93C4.78 15.35 4.16 11.28 4.16 11.23C4.12 11.02 4 10.84 3.81 10.74C3.62 10.64 3.4 10.63 3.2 10.73C3.06 10.8 -0.3 12.5 -0.49 19.31C-0.5 19.54 -0.5 19.77 -0.5 20C-0.5 26.61 4.88 31.99 11.5 31.99C11.5 31.99 11.51 32 11.52 31.99C11.52 31.99 11.53 31.99 11.53 31.99C18.13 31.98 23.5 26.6 23.5 20C23.5 19.66 23.43 18.73 23.43 18.73ZM11.5 30.66C9.29 30.66 7.5 28.75 7.5 26.4C7.5 26.32 7.49 26.24 7.5 26.14C7.53 25.15 7.72 24.47 7.92 24.02C8.31 24.85 9 25.62 10.12 25.62C10.49 25.62 10.79 25.32 10.79 24.95C10.79 24 10.81 22.91 11.05 21.92C11.26 21.04 11.76 20.11 12.39 19.36C12.68 20.33 13.23 21.12 13.77 21.88C14.54 22.98 15.34 24.11 15.48 26.05C15.49 26.16 15.5 26.28 15.5 26.4C15.5 28.75 13.7 30.66 11.5 30.66Z" fill="#FF7010" fill-opacity="1.000000" fill-rule="nonzero"></path>
</symbol>
<symbol viewBox="0 0 18 20" fill="none" id="signIn">
<path fill-rule="evenodd" clip-rule="evenodd" d="M9.00001 0C6.35804 0 4.20825 2.14979 4.20825 4.79176C4.20825 7.43372 6.35803 9.58333 9.00001 9.58333C11.642 9.58333 13.7918 7.43372 13.7918 4.79176C13.7918 2.14979 11.642 0 9.00001 0ZM5.2755 4.79176C5.2755 2.73768 6.94613 1.06724 9.00001 1.06724C11.0539 1.06724 12.7245 2.73768 12.7245 4.79176C12.7245 6.84566 11.0539 8.51609 9.00001 8.51609C6.94614 8.51609 5.2755 6.84566 5.2755 4.79176Z" fill="#FF7010"></path>
<path fill-rule="evenodd" clip-rule="evenodd" d="M4.96381 11.6665C2.59468 11.6665 0.666626 13.6453 0.666626 16.0768V19.4881C0.666626 19.7705 0.890047 19.9998 1.1652 19.9998H16.8347C17.1099 19.9998 17.3333 19.7705 17.3333 19.4881V16.0768C17.3333 13.6453 15.4052 11.6665 13.0361 11.6665H4.96381ZM1.66378 16.0768C1.66378 14.2092 3.14412 12.6899 4.96381 12.6899H13.0361C14.8558 12.6899 16.3361 14.2092 16.3361 16.0768V18.9764H1.66378V16.0768Z" fill="#FF7010"></path>
</symbol>
<symbol viewBox="0 0 26 32" fill="none" id="snack">
	<desc>
			Created with Pixso.
	</desc>
	<defs></defs>
	<path id="path4528" d="M5.56 0C5.26 0 5.04 0.23 5.03 0.53L5.03 8.62C5.56 8.82 5.98 9.29 6.07 9.87C6.08 9.89 6.29 11.09 7.16 12.35L7.16 0.53C7.16 0.23 6.92 0 6.63 0L5.56 0ZM18.36 0C18.06 0 17.84 0.23 17.83 0.53L17.83 12.34C18.7 11.07 18.92 9.86 18.92 9.86C19.01 9.28 19.43 8.82 19.96 8.62L19.96 0.53C19.96 0.23 19.72 0 19.43 0L18.36 0ZM8.76 2.13C8.46 2.13 8.23 2.37 8.23 2.66L8.23 13.55C8.77 14.02 9.45 14.42 10.36 14.67L10.36 2.66C10.36 2.37 10.12 2.13 9.83 2.13L8.76 2.13ZM15.16 2.13C14.86 2.13 14.63 2.37 14.63 2.66L14.63 14.67C15.53 14.42 16.21 14.02 16.76 13.54L16.76 2.66C16.76 2.37 16.52 2.13 16.23 2.13L15.16 2.13ZM2.36 4.26C2.06 4.26 1.83 4.5 1.83 4.79L1.83 8.53L3.96 8.53L3.96 4.79C3.96 4.5 3.72 4.26 3.43 4.26L2.36 4.26ZM11.96 4.26C11.66 4.26 11.43 4.5 11.43 4.79L11.43 14.87C11.76 14.91 12.11 14.93 12.49 14.93C12.87 14.93 13.23 14.91 13.56 14.87L13.56 4.79C13.56 4.5 13.32 4.26 13.03 4.26L11.96 4.26ZM21.56 4.26C21.26 4.26 21.03 4.5 21.03 4.79L21.03 8.53L23.16 8.53L23.16 4.79C23.16 4.5 22.92 4.26 22.63 4.26L21.56 4.26ZM-0.31 9.59C-0.63 9.6 -0.88 9.88 -0.83 10.2L1.83 30.46C1.93 31.25 2.55 32 3.43 32L21.56 32C22.44 32 23.06 31.26 23.15 30.46L25.82 10.2C25.87 9.88 25.62 9.59 25.29 9.59L20.49 9.59C20.23 9.6 20.01 9.79 19.97 10.04C19.97 10.04 19.72 11.52 18.66 13.02C17.6 14.51 15.8 16 12.49 16C9.19 16 7.39 14.51 6.33 13.02C5.27 11.52 5.02 10.04 5.02 10.04C4.98 9.78 4.76 9.59 4.49 9.59L-0.31 9.59ZM12.49 19.73C14.84 19.73 16.76 21.64 16.76 23.99C16.76 26.34 14.84 28.26 12.49 28.26C10.14 28.26 8.22 26.34 8.22 23.99C8.22 21.64 10.14 19.73 12.49 19.73Z" fill="#FF7010" fill-opacity="1.000000" fill-rule="nonzero"></path>
</symbol>
<symbol viewBox="0 0 32 20" fill="none" id="souce">
	<desc>
			Created with Pixso.
	</desc>
	<defs></defs>
	<path id="Vector" d="M31.48 4.42C31.44 1.97 29.45 0 27.01 0C24.83 0 23.01 1.57 22.62 3.65C21.85 3.99 20.52 4.54 19.73 4.67C18.77 4.83 17.61 4.88 16.29 4.81C13.76 4.69 11.23 3.86 8.98 2.42C6.15 0.61 3.74 0.19 1.16 1.05C0.17 1.38 -0.5 2.32 -0.5 3.39C-0.5 3.74 -0.32 4.06 -0.02 4.23C0.33 4.41 0.65 4.58 0.96 4.74C2.65 5.59 3.59 6.06 4.2 8.66C4.66 10.61 5.47 12.23 6.6 13.5C7.08 14.04 7.62 14.51 8.21 14.92L21.04 14.92C22.98 13.46 24.17 11.25 24.49 8.45C24.69 6.78 24.52 5.31 24.41 4.59C24.41 4.56 24.42 4.52 24.42 4.48C24.42 3.05 25.58 1.89 27.01 1.89C28.44 1.89 29.6 3.05 29.6 4.48C29.6 4.52 29.6 4.57 29.61 4.61C29.61 4.62 29.72 5.56 29.14 6.23C28.66 6.78 27.83 7.06 26.65 7.06C26.13 7.06 25.71 7.49 25.71 8.01C25.71 8.53 26.13 8.96 26.65 8.96C28.39 8.96 29.71 8.46 30.55 7.47C31.59 6.26 31.52 4.79 31.48 4.42Z" fill="#FF7010" fill-opacity="1.000000" fill-rule="nonzero"></path>
	<path id="Vector" d="M8.22 16.81C8.16 17.02 8.14 17.23 8.14 17.45L8.14 19.05C8.14 19.57 8.56 20 9.07 20L20.24 20C20.76 20 21.18 19.57 21.18 19.05L21.18 17.45C21.18 17.23 21.15 17.02 21.1 16.81L8.22 16.81Z" fill="#FF7010" fill-opacity="1.000000" fill-rule="nonzero"></path>
</symbol>
<symbol viewBox="0 0 32 20" fill="none" id="sushi">
	<desc>
			Created with Pixso.
	</desc>
	<defs></defs>
	<path id="Vector" d="M18.95 13.38C14.7 13.38 10.69 14 7.36 15.19C6.53 15.48 5.68 15.63 4.81 15.63C3.74 15.63 2.71 15.4 1.76 14.98C2.54 17.87 5.18 20 8.31 20L23.81 20C26.97 20 29.63 17.82 30.38 14.89C30.08 14.89 29.78 14.85 29.49 14.77C26.27 13.86 22.63 13.38 18.95 13.38Z" fill="#FF7010" fill-opacity="1.000000" fill-rule="nonzero"></path>
	<path id="Vector" d="M9.54 12.25C10.87 11.92 12.25 11.67 13.68 11.5C10.9 8.45 10.64 3.34 13.18 0C11.14 0.06 9.14 0.39 7.28 0.97C6.33 1.88 5.66 3.06 5.35 4.35C4.54 7.55 6.44 11.11 9.54 12.25Z" fill="#FF7010" fill-opacity="1.000000" fill-rule="nonzero"></path>
	<path id="Vector" d="M6.6 13.12C3.82 11.04 2.37 7.44 3.2 3.85C3.31 3.39 3.45 2.95 3.62 2.53C2.89 2.94 2.19 3.39 1.55 3.9C-2.46 7 -0.18 13.44 4.81 13.42C5.41 13.42 6.01 13.32 6.6 13.12Z" fill="#FF7010" fill-opacity="1.000000" fill-rule="nonzero"></path>
	<path id="Vector" d="M25.44 3.22C24.47 3.7 23.68 4.48 23.21 5.47C22.41 7.12 22.61 9.04 23.67 10.48C23.84 10.7 24.44 11.37 24.5 11.52C26.42 11.77 28.3 12.14 30.09 12.65C30.46 12.75 30.86 12.66 31.14 12.39C31.43 12.13 31.55 11.74 31.47 11.36C30.8 8.1 28.59 5.25 25.44 3.22Z" fill="#FF7010" fill-opacity="1.000000" fill-rule="nonzero"></path>
	<path id="Vector" d="M16.68 11.23C18.29 11.15 19.91 11.16 21.53 11.25C20.31 9.24 20.15 6.71 21.22 4.51C21.7 3.52 22.39 2.67 23.24 2.01C21.11 1 18.67 0.33 16.08 0.09C12.57 2.98 12.9 8.76 16.68 11.23Z" fill="#FF7010" fill-opacity="1.000000" fill-rule="nonzero"></path>
</symbol>
</defs>
</svg>
