<svg width="24.000000" height="24.000000" viewBox="0 0 24 24" fill="none" xmlns="http://www.w3.org/2000/svg" xmlns:xlink="http://www.w3.org/1999/xlink">
	<desc>
			Created with Pixso.
	</desc>
	<defs>
		<clipPath id="clip236_24686">
			<rect id="Cross" width="24.000000" height="24.000000" fill="white" fill-opacity="0"/>
		</clipPath>
	</defs>
	<g clip-path="url(#clip236_24686)">
		<path id="Union" d="M1.33 0.22C1.02 -0.08 0.53 -0.08 0.22 0.22C-0.08 0.53 -0.08 1.02 0.22 1.33L10.89 12L0.22 22.66C-0.08 22.97 -0.08 23.46 0.22 23.77C0.53 24.07 1.02 24.07 1.33 23.77L12 13.1L22.66 23.77C22.97 24.07 23.46 24.07 23.77 23.77C24.07 23.46 24.07 22.97 23.77 22.66L13.1 12L23.77 1.33C24.07 1.02 24.07 0.53 23.77 0.22C23.46 -0.08 22.97 -0.08 22.66 0.22L12 10.89L1.33 0.22Z" fill="#A5A5A5" fill-opacity="1.000000" fill-rule="evenodd"/>
	</g>
</svg>
