<svg width="26.000000" height="32.000000" viewBox="0 0 26 32" fill="none" xmlns="http://www.w3.org/2000/svg" xmlns:xlink="http://www.w3.org/1999/xlink">
	<desc>
			Created with Pixso.
	</desc>
	<defs/>
	<path id="Vector" d="M14.16 15.79C13.72 15.34 13.12 15.09 12.49 15.09C11.87 15.09 11.27 15.34 10.82 15.79C10.82 15.79 9.51 17.12 9.14 17.42L10.29 32L14.71 32L15.86 17.43C15.64 17.31 14.16 15.79 14.16 15.79Z" fill="#FF7010" fill-opacity="1.000000" fill-rule="nonzero"/>
	<path id="Vector" d="M5.87 15.64C5.45 15.21 4.88 14.97 4.29 14.94C3.69 14.92 3.11 15.13 2.66 15.52L0.36 17.48L2.57 29.94C2.67 30.52 2.97 31.04 3.41 31.41C3.85 31.78 4.4 31.99 4.97 31.99L8.98 31.99L7.84 17.51C7.58 17.41 5.87 15.64 5.87 15.64Z" fill="#FF7010" fill-opacity="1.000000" fill-rule="nonzero"/>
	<path id="Vector" d="M11.97 2.68C12.13 2.74 12.31 2.78 12.5 2.79C12.72 2.79 12.95 2.74 13.15 2.63C13.35 2.52 13.52 2.35 13.64 2.16C13.79 1.93 13.87 1.66 13.87 1.39C13.87 1.18 13.82 0.97 13.73 0.78C13.64 0.59 13.5 0.42 13.34 0.29C13.17 0.16 12.98 0.07 12.78 0.02C12.57 -0.02 12.36 -0.01 12.16 0.04C11.96 0.09 11.77 0.19 11.61 0.33C11.45 0.46 11.32 0.64 11.24 0.83C11.16 1.03 11.12 1.24 11.12 1.45C11.13 1.66 11.19 1.87 11.29 2.06C11.44 2.33 11.68 2.55 11.97 2.68Z" fill="#FF7010" fill-opacity="1.000000" fill-rule="nonzero"/>
	<path id="Vector" d="M20.4 8.51L20.03 8.42L19.94 8.04C19.35 5.7 17.26 3.8 14.56 3.15C14.32 3.47 14 3.72 13.64 3.89C13.28 4.06 12.89 4.14 12.49 4.12C11.4 4.12 10.49 3.2 10.43 3.14C7.73 3.79 5.65 5.67 5.06 8.02L4.98 8.42L4.6 8.52C3.02 8.94 1.66 9.96 0.8 11.37C-0.07 12.78 -0.37 14.47 -0.04 16.1L1.81 14.5C2.52 13.9 3.41 13.58 4.33 13.62C5.25 13.65 6.13 14.03 6.78 14.68L8.42 16.3L9.92 14.82C10.26 14.48 10.66 14.21 11.1 14.03C11.54 13.84 12.02 13.75 12.49 13.76C13.46 13.77 14.39 14.16 15.08 14.85L16.55 16.31L18.22 14.67C18.88 14.02 19.75 13.64 20.67 13.61C21.58 13.58 22.48 13.9 23.18 14.5L25.03 16.1C25.36 14.47 25.06 12.77 24.2 11.36C23.34 9.95 21.98 8.93 20.4 8.51Z" fill="#FF7010" fill-opacity="1.000000" fill-rule="nonzero"/>
	<path id="Vector" d="M19.13 15.62C19.13 15.62 17.37 17.4 17.16 17.48L16.02 31.98L20.03 31.98C20.6 31.99 21.15 31.78 21.59 31.41C22.03 31.04 22.33 30.52 22.43 29.94L23.53 23.75L24.62 17.48L22.32 15.51C21.87 15.12 21.3 14.92 20.71 14.94C20.12 14.96 19.55 15.2 19.13 15.62Z" fill="#FF7010" fill-opacity="1.000000" fill-rule="nonzero"/>
</svg>
