<svg width="18.000000" height="32.000000" viewBox="0 0 18 32" fill="none" xmlns="http://www.w3.org/2000/svg" xmlns:xlink="http://www.w3.org/1999/xlink">
	<desc>
			Created with Pixso.
	</desc>
	<defs/>
	<path id="Vector" d="M9.6 6.51L9.6 3.68L15.59 2.25C16.14 2.12 16.48 1.56 16.33 1.02L16.3 0.92C16.16 0.4 15.63 0.09 15.11 0.21L8.16 1.83C7.71 1.94 7.39 2.34 7.39 2.81L7.39 6.51L0.16 6.51C-0.39 6.51 -0.84 6.96 -0.84 7.51L-0.84 11.11L17.83 11.11L17.83 7.51C17.83 6.96 17.38 6.51 16.83 6.51L9.6 6.51Z" fill="#FF7010" fill-opacity="1.000000" fill-rule="nonzero"/>
	<path id="Vector" d="M-0.75 12.88L1.79 30.15C1.94 31.22 2.89 32 3.96 32L12.92 32C14.02 32 14.94 31.22 15.09 30.15L17.63 12.88L-0.75 12.88Z" fill="#FF7010" fill-opacity="1.000000" fill-rule="nonzero"/>
</svg>
