<svg width="20.000000" height="20.000000" viewBox="0 0 20 20" fill="none" xmlns="http://www.w3.org/2000/svg" xmlns:xlink="http://www.w3.org/1999/xlink">
	<desc>
			Created with Pixso.
	</desc>
	<defs/>
	<path id="Subtract" d="M8.33331 20C3.61108 19.1619 0 15.0278 0 10.0559C0 4.52515 4.5 0 10 0C15.5 0 20 4.52515 20 10.0559C20 15.0278 16.3889 19.1619 11.6667 20L11.611 19.9553C11.6296 19.9517 11.6481 19.948 11.6667 19.9443L11.6667 12.8494L13.8889 12.8494L14.3333 10.0559L11.6667 10.0559L11.6667 8.10059C11.6667 7.3186 11.9445 6.7041 13.1667 6.7041L14.4445 6.7041L14.4445 4.13428C13.7222 4.02246 12.9445 3.91064 12.2222 3.91064C9.94446 3.91064 8.33331 5.30737 8.33331 7.82129L8.33331 10.0559L5.83331 10.0559L5.83331 12.8494L8.33331 12.8494L8.33331 19.9443C8.35187 19.948 8.37042 19.9517 8.38898 19.9553L8.33331 20Z" clip-rule="evenodd" fill="#FF7010" fill-opacity="1.000000" fill-rule="evenodd"/>
</svg>
