<svg width="16.000000" height="16.000000" viewBox="0 0 16 16" fill="none" xmlns="http://www.w3.org/2000/svg" xmlns:xlink="http://www.w3.org/1999/xlink">
	<desc>
			Created with Pixso.
	</desc>
	<defs>
		<clipPath id="clip67_3425">
			<rect id="Filter" width="16.000000" height="16.000000" fill="white" fill-opacity="0"/>
		</clipPath>
	</defs>
	<g clip-path="url(#clip67_3425)">
		<path id="Vector" d="M6.33 16C6.27 16 6.21 15.98 6.16 15.95C6.06 15.89 6 15.78 6 15.66L6 8.93C6 8.64 5.87 8.37 5.66 8.18L0.55 3.64C0.2 3.33 0 2.87 0 2.39L0 1C0 0.44 0.44 0 1 0L15 0C15.55 0 16 0.44 16 1L16 2.39C16 2.87 15.79 3.33 15.44 3.64L10.33 8.18C10.12 8.37 10 8.64 10 8.93L10 13.28C10 13.63 9.81 13.96 9.51 14.14L6.5 15.95C6.45 15.98 6.39 16 6.33 16ZM1 0.66C0.81 0.66 0.66 0.81 0.66 1L0.66 2.39C0.66 2.68 0.78 2.96 1 3.14L6.1 7.68C6.46 8 6.66 8.45 6.66 8.93L6.66 15.07L9.17 13.57C9.27 13.51 9.33 13.4 9.33 13.28L9.33 8.93C9.33 8.45 9.53 8 9.89 7.68L14.99 3.15C15.21 2.96 15.33 2.68 15.33 2.39L15.33 1C15.33 0.81 15.18 0.66 15 0.66L1 0.66Z" fill="#FF7010" fill-opacity="1.000000" fill-rule="nonzero"/>
	</g>
</svg>
