<svg width="20.000000" height="20.000000" viewBox="0 0 20 20" fill="none" xmlns="http://www.w3.org/2000/svg" xmlns:xlink="http://www.w3.org/1999/xlink">
	<desc>
			Created with Pixso.
	</desc>
	<defs/>
	<path id="Vector" d="M10 0C7.28 0 6.94 0.02 5.87 0.06C4.81 0.11 4.08 0.28 3.45 0.53C2.78 0.78 2.17 1.17 1.67 1.68C1.17 2.18 0.77 2.79 0.52 3.45C0.27 4.09 0.1 4.82 0.05 5.88C0.01 6.94 0 7.29 0 10C0 12.71 0.01 13.06 0.05 14.12C0.1 15.19 0.27 15.91 0.52 16.55C0.77 17.22 1.17 17.82 1.67 18.32C2.17 18.83 2.78 19.22 3.45 19.47C4.08 19.72 4.81 19.89 5.87 19.94C6.94 19.99 7.28 20 10 20C12.71 20 13.05 19.99 14.12 19.94C15.18 19.89 15.91 19.72 16.55 19.47C17.22 19.22 17.82 18.83 18.32 18.32C18.83 17.82 19.22 17.22 19.47 16.55C19.72 15.91 19.89 15.19 19.94 14.12C19.99 13.06 20 12.72 20 10C20 7.29 19.99 6.94 19.94 5.88C19.89 4.82 19.72 4.09 19.47 3.45C19.22 2.79 18.83 2.18 18.32 1.68C17.82 1.17 17.22 0.78 16.55 0.53C15.91 0.28 15.18 0.11 14.12 0.06C12.75 0 11.37 -0.02 10 0ZM10 1.8C12.67 1.8 12.98 1.82 14.04 1.86C15.01 1.91 15.54 2.07 15.89 2.21C16.36 2.39 16.69 2.6 17.04 2.96C17.38 3.28 17.63 3.67 17.79 4.1C17.93 4.46 18.09 4.99 18.14 5.96C18.19 7.02 18.19 7.33 18.19 10C18.19 12.67 18.19 12.99 18.14 14.04C18.09 15.02 17.93 15.54 17.79 15.89C17.63 16.33 17.38 16.72 17.04 17.04C16.72 17.38 16.33 17.63 15.89 17.79C15.54 17.93 15.01 18.09 14.04 18.14C12.98 18.19 12.66 18.2 10 18.2C7.33 18.2 7.01 18.19 5.95 18.14C4.98 18.09 4.45 17.93 4.1 17.79C3.66 17.63 3.27 17.38 2.95 17.04C2.61 16.72 2.36 16.33 2.2 15.89C2.06 15.54 1.9 15.02 1.85 14.04C1.8 12.69 1.78 11.35 1.8 10C1.8 7.33 1.81 7.02 1.85 5.96C1.9 4.99 2.06 4.46 2.2 4.1C2.36 3.67 2.62 3.28 2.95 2.95C3.27 2.62 3.66 2.36 4.1 2.2C4.45 2.07 4.98 1.91 5.96 1.86C7.01 1.82 7.33 1.8 10 1.8ZM10 4.87C8.64 4.87 7.33 5.41 6.37 6.37C5.4 7.33 4.86 8.64 4.86 10C4.86 11.36 5.4 12.67 6.37 13.63C7.33 14.59 8.64 15.13 10 15.13C11.36 15.13 12.67 14.59 13.63 13.63C14.59 12.67 15.13 11.36 15.13 10C15.13 8.64 14.59 7.33 13.63 6.37C12.67 5.41 11.36 4.87 10 4.87ZM10 13.34C9.11 13.34 8.27 12.99 7.64 12.36C7.02 11.74 6.66 10.89 6.66 10C6.66 9.12 7.02 8.27 7.64 7.65C8.27 7.02 9.11 6.67 10 6.67C10.88 6.67 11.73 7.02 12.36 7.65C12.98 8.27 13.33 9.12 13.33 10C13.33 10.89 12.98 11.74 12.36 12.36C11.73 12.99 10.88 13.34 10 13.34ZM16.54 4.67C16.54 4.35 16.41 4.05 16.18 3.82C15.96 3.6 15.65 3.47 15.33 3.47C15.02 3.47 14.71 3.6 14.49 3.82C14.26 4.05 14.13 4.35 14.13 4.67C14.13 4.99 14.26 5.29 14.49 5.52C14.71 5.74 15.02 5.87 15.33 5.87C15.65 5.87 15.96 5.74 16.18 5.52C16.41 5.29 16.54 4.99 16.54 4.67Z" fill="#FF7010" fill-opacity="1.000000" fill-rule="nonzero"/>
</svg>
