<svg width="20.000000" height="20.000000" viewBox="0 0 20 20" fill="none" xmlns="http://www.w3.org/2000/svg" xmlns:xlink="http://www.w3.org/1999/xlink">
	<desc>
			Created with Pixso.
	</desc>
	<defs/>
	<path id="Vector" d="M4.05 13.29C6.03 15.65 8.41 17.5 11.13 18.82C12.17 19.31 13.55 19.89 15.1 19.99C15.19 19.99 15.28 20 15.38 20C16.42 20 17.25 19.64 17.93 18.91C17.93 18.9 17.94 18.89 17.94 18.88C18.18 18.59 18.46 18.33 18.74 18.06C18.94 17.87 19.14 17.67 19.33 17.48C20.22 16.56 20.22 15.39 19.32 14.5L16.82 12C16.4 11.57 15.89 11.33 15.36 11.33C14.83 11.33 14.31 11.57 13.88 12L12.39 13.48C12.25 13.41 12.11 13.34 11.98 13.27C11.81 13.19 11.66 13.11 11.52 13.02C10.16 12.16 8.93 11.04 7.75 9.61C7.16 8.86 6.76 8.23 6.48 7.58C6.87 7.23 7.24 6.86 7.59 6.5C7.72 6.37 7.85 6.24 7.97 6.12C8.42 5.67 8.67 5.15 8.67 4.62C8.67 4.1 8.43 3.58 7.97 3.13L6.74 1.9C6.59 1.75 6.45 1.61 6.31 1.47C6.04 1.18 5.75 0.89 5.47 0.63C5.04 0.21 4.53 0 4 0C3.47 0 2.97 0.21 2.52 0.64L0.97 2.19C0.4 2.75 0.08 3.43 0.01 4.23C-0.07 5.22 0.12 6.27 0.59 7.54C1.32 9.51 2.42 11.34 4.05 13.29ZM1.03 4.31C1.08 3.76 1.29 3.3 1.69 2.9L3.24 1.36C3.48 1.13 3.74 1.01 4 1.01C4.26 1.01 4.51 1.13 4.75 1.37C5.03 1.63 5.29 1.9 5.57 2.18C5.72 2.33 5.86 2.47 6.01 2.62L7.25 3.86C7.5 4.11 7.64 4.38 7.64 4.63C7.64 4.89 7.5 5.15 7.25 5.41C7.12 5.54 6.99 5.67 6.86 5.8C6.47 6.19 6.11 6.56 5.71 6.91C5.7 6.92 5.7 6.92 5.69 6.93C5.35 7.27 5.4 7.6 5.48 7.85C5.49 7.86 5.49 7.87 5.5 7.88C5.82 8.65 6.26 9.38 6.96 10.25C8.2 11.78 9.52 12.97 10.97 13.89C11.14 14 11.34 14.09 11.52 14.18C11.68 14.27 11.84 14.35 11.97 14.43C11.99 14.44 12 14.45 12.02 14.46C12.16 14.53 12.29 14.56 12.42 14.56C12.75 14.56 12.97 14.35 13.04 14.28L14.6 12.73C14.84 12.49 15.1 12.36 15.36 12.36C15.67 12.36 15.93 12.56 16.1 12.73L18.6 15.23C19.1 15.72 19.1 16.26 18.59 16.79C18.42 16.97 18.23 17.15 18.04 17.34C17.75 17.62 17.44 17.91 17.17 18.24C16.69 18.75 16.12 18.99 15.38 18.99C15.31 18.99 15.24 18.99 15.17 18.98C13.8 18.9 12.53 18.37 11.58 17.91C8.99 16.67 6.72 14.9 4.84 12.65C3.29 10.79 2.24 9.06 1.55 7.2C1.12 6.06 0.96 5.15 1.03 4.31Z" fill="#FF7010" fill-opacity="1.000000" fill-rule="nonzero"/>
</svg>
