<svg width="14.000000" height="20.000000" viewBox="0 0 14 20" fill="none" xmlns="http://www.w3.org/2000/svg" xmlns:xlink="http://www.w3.org/1999/xlink">
	<desc>
			Created with Pixso.
	</desc>
	<defs/>
	<path id="Vector" d="M6.51 19.73C6.62 19.9 6.8 20 7 20C7.19 20 7.37 19.9 7.48 19.73C8.86 17.65 10.89 15.09 12.31 12.47C13.44 10.38 14 8.6 14 7.03C14 3.15 10.85 0 7 0C3.14 0 0 3.15 0 7.03C0 8.6 0.55 10.38 1.68 12.47C3.09 15.08 5.13 17.66 6.51 19.73ZM7 1.17C10.21 1.17 12.83 3.8 12.83 7.03C12.83 8.4 12.32 10 11.29 11.91C10.07 14.16 8.32 16.45 7 18.37C5.67 16.45 3.92 14.16 2.7 11.91C1.67 10 1.16 8.4 1.16 7.03C1.16 3.8 3.78 1.17 7 1.17Z" fill="#FF7010" fill-opacity="1.000000" fill-rule="nonzero"/>
	<path id="Vector" d="M7 10.54C8.92 10.54 10.5 8.96 10.5 7.03C10.5 5.09 8.92 3.51 7 3.51C5.07 3.51 3.5 5.09 3.5 7.03C3.5 8.96 5.07 10.54 7 10.54ZM7 4.68C8.28 4.68 9.33 5.73 9.33 7.03C9.33 8.32 8.28 9.37 7 9.37C5.71 9.37 4.66 8.32 4.66 7.03C4.66 5.73 5.71 4.68 7 4.68Z" fill="#FF7010" fill-opacity="1.000000" fill-rule="nonzero"/>
</svg>
