<svg width="32.000000" height="32.000000" viewBox="0 0 32 32" fill="none" xmlns="http://www.w3.org/2000/svg" xmlns:xlink="http://www.w3.org/1999/xlink">
	<desc>
			Created with Pixso.
	</desc>
	<defs/>
	<path id="Vector" d="M25.65 23C25.73 23.86 25.43 24.71 24.82 25.33C24.2 25.94 23.36 26.24 22.49 26.16C21.78 26.09 21.09 26.49 20.79 27.14C20.43 27.93 19.74 28.52 18.91 28.74C18.07 28.96 17.18 28.81 16.48 28.3C16.36 28.22 16.23 28.15 16.1 28.1L16.1 32C21.54 31.79 26.3 28.85 29.03 24.51L25.67 22.57C25.65 22.71 25.64 22.85 25.65 23Z" fill="#FF7010" fill-opacity="1.000000" fill-rule="nonzero"/>
	<path id="Vector" d="M12.83 28.84C12.58 28.84 12.33 28.81 12.08 28.74C11.25 28.52 10.56 27.93 10.2 27.14C9.9 26.49 9.21 26.09 8.5 26.16C7.63 26.24 6.79 25.94 6.17 25.33C5.56 24.71 5.26 23.86 5.34 23C5.35 22.85 5.34 22.71 5.32 22.57L1.96 24.51C4.69 28.85 9.45 31.79 14.9 32L14.9 28.1C14.76 28.15 14.63 28.22 14.51 28.3C14.02 28.66 13.43 28.84 12.83 28.84Z" fill="#FF7010" fill-opacity="1.000000" fill-rule="nonzero"/>
	<path id="Vector" d="M12.39 4.41C11.9 4.54 11.5 4.88 11.29 5.34C10.78 6.47 9.6 7.15 8.38 7.03C7.88 6.98 7.38 7.15 7.02 7.51C6.66 7.87 6.49 8.37 6.53 8.87C6.57 9.28 6.52 9.67 6.4 10.04L14.9 14.96L14.9 5.13C14.51 5.05 14.15 4.9 13.81 4.67C13.4 4.37 12.88 4.28 12.39 4.41ZM12.56 10.91C11.66 11.43 10.5 11.12 9.98 10.22C9.45 9.31 9.76 8.15 10.67 7.63C11.57 7.1 12.73 7.41 13.26 8.32C13.78 9.23 13.47 10.39 12.56 10.91Z" fill="#FF7010" fill-opacity="1.000000" fill-rule="nonzero"/>
	<path id="Vector" d="M4.36 21.3C3.57 20.94 2.99 20.25 2.76 19.41C2.54 18.57 2.7 17.69 3.2 16.98C3.62 16.39 3.62 15.6 3.2 15.01C2.7 14.3 2.54 13.42 2.76 12.58C2.99 11.74 3.57 11.05 4.36 10.69C4.49 10.63 4.61 10.55 4.72 10.46L1.35 8.52C0.17 10.75 -0.5 13.29 -0.5 16C-0.5 18.7 0.17 21.24 1.35 23.47L4.72 21.53C4.61 21.44 4.49 21.36 4.36 21.3Z" fill="#FF7010" fill-opacity="1.000000" fill-rule="nonzero"/>
	<path id="Vector" d="M18.91 3.25C19.74 3.47 20.43 4.06 20.79 4.85C21.09 5.5 21.78 5.9 22.49 5.83C23.36 5.75 24.2 6.05 24.82 6.66C25.43 7.28 25.73 8.13 25.65 8.99C25.64 9.14 25.65 9.28 25.67 9.42L29.03 7.48C26.3 3.14 21.54 0.2 16.1 0L16.1 3.89C16.23 3.84 16.36 3.78 16.48 3.69C17.18 3.18 18.07 3.02 18.91 3.25Z" fill="#FF7010" fill-opacity="1.000000" fill-rule="nonzero"/>
	<path id="Vector" d="M3.92 19.1C4.05 19.59 4.39 19.99 4.85 20.2C5.22 20.37 5.54 20.62 5.8 20.91L14.3 16L5.8 11.08C5.54 11.37 5.22 11.62 4.85 11.79C4.39 12 4.05 12.4 3.92 12.89C3.79 13.38 3.88 13.9 4.18 14.31C4.9 15.32 4.9 16.67 4.18 17.68C3.88 18.09 3.79 18.61 3.92 19.1ZM7.74 14.1C8.78 14.1 9.63 14.95 9.63 16C9.63 17.04 8.78 17.89 7.74 17.89C6.69 17.89 5.84 17.04 5.84 16C5.84 14.95 6.69 14.1 7.74 14.1Z" fill="#FF7010" fill-opacity="1.000000" fill-rule="nonzero"/>
	<path id="Vector" d="M1.96 7.48L5.32 9.42C5.34 9.28 5.35 9.14 5.34 8.99C5.26 8.13 5.56 7.28 6.17 6.66C6.79 6.05 7.63 5.75 8.5 5.83C9.21 5.9 9.9 5.5 10.2 4.85C10.56 4.06 11.25 3.47 12.08 3.25C12.92 3.03 13.81 3.18 14.51 3.69C14.63 3.78 14.76 3.84 14.9 3.89L14.9 0C9.45 0.2 4.69 3.14 1.96 7.48Z" fill="#FF7010" fill-opacity="1.000000" fill-rule="nonzero"/>
	<path id="Vector" d="M29.64 8.52L26.27 10.46C26.38 10.55 26.5 10.63 26.63 10.69C27.42 11.05 28 11.74 28.23 12.58C28.45 13.42 28.29 14.3 27.79 15.01C27.37 15.6 27.37 16.39 27.79 16.98C28.29 17.69 28.45 18.57 28.23 19.41C28 20.25 27.42 20.94 26.63 21.3C26.5 21.36 26.38 21.44 26.27 21.53L29.64 23.47C30.82 21.24 31.5 18.7 31.5 16C31.5 13.29 30.82 10.75 29.64 8.52Z" fill="#FF7010" fill-opacity="1.000000" fill-rule="nonzero"/>
	<path id="Vector" d="M6.53 23.12C6.49 23.62 6.66 24.12 7.02 24.48C7.38 24.83 7.88 25.01 8.38 24.96C9.61 24.84 10.78 25.52 11.29 26.65C11.5 27.11 11.9 27.45 12.39 27.58C12.88 27.71 13.4 27.62 13.81 27.32C14.15 27.09 14.51 26.94 14.9 26.86L14.9 17.04L6.4 21.95C6.52 22.32 6.57 22.71 6.53 23.12ZM9.98 21.77C10.5 20.87 11.66 20.56 12.56 21.08C13.47 21.6 13.78 22.76 13.26 23.67C12.73 24.58 11.57 24.89 10.67 24.36C9.76 23.84 9.45 22.68 9.98 21.77Z" fill="#FF7010" fill-opacity="1.000000" fill-rule="nonzero"/>
	<path id="Vector" d="M18.6 27.58C19.09 27.45 19.49 27.11 19.7 26.65C20.21 25.52 21.39 24.85 22.61 24.96C23.11 25.01 23.61 24.83 23.97 24.48C24.33 24.12 24.5 23.62 24.46 23.12C24.42 22.71 24.47 22.32 24.59 21.95L16.1 17.04L16.1 26.86C16.48 26.94 16.84 27.09 17.18 27.32C17.59 27.62 18.11 27.71 18.6 27.58ZM18.43 21.08C19.33 20.56 20.49 20.87 21.01 21.77C21.54 22.68 21.23 23.84 20.32 24.36C19.42 24.89 18.26 24.58 17.73 23.67C17.21 22.76 17.52 21.6 18.43 21.08Z" fill="#FF7010" fill-opacity="1.000000" fill-rule="nonzero"/>
	<path id="Vector" d="M27.07 12.89C26.94 12.4 26.6 12 26.14 11.79C25.77 11.62 25.45 11.37 25.19 11.08L16.69 16L25.19 20.91C25.45 20.62 25.77 20.37 26.14 20.2C26.6 19.99 26.94 19.59 27.07 19.1C27.2 18.61 27.11 18.09 26.81 17.68C26.09 16.67 26.09 15.32 26.81 14.31C27.11 13.9 27.2 13.38 27.07 12.89ZM23.25 17.89C22.21 17.89 21.36 17.04 21.36 16C21.36 14.95 22.21 14.1 23.25 14.1C24.3 14.1 25.15 14.95 25.15 16C25.15 17.04 24.3 17.89 23.25 17.89Z" fill="#FF7010" fill-opacity="1.000000" fill-rule="nonzero"/>
	<path id="Vector" d="M24.46 8.88C24.5 8.37 24.33 7.87 23.97 7.51C23.61 7.16 23.11 6.98 22.61 7.03C21.38 7.14 20.21 6.47 19.7 5.34C19.49 4.88 19.09 4.54 18.6 4.41C18.11 4.28 17.59 4.37 17.18 4.67C16.84 4.9 16.48 5.05 16.1 5.13L16.1 14.96L24.59 10.04C24.47 9.67 24.42 9.28 24.46 8.88ZM21.01 10.22C20.49 11.12 19.33 11.43 18.43 10.91C17.52 10.39 17.21 9.23 17.73 8.32C18.26 7.41 19.42 7.1 20.32 7.63C21.23 8.15 21.54 9.31 21.01 10.22Z" fill="#FF7010" fill-opacity="1.000000" fill-rule="nonzero"/>
</svg>
