<svg width="24.000000" height="32.000000" viewBox="0 0 24 32" fill="none" xmlns="http://www.w3.org/2000/svg" xmlns:xlink="http://www.w3.org/1999/xlink">
	<desc>
			Created with Pixso.
	</desc>
	<defs/>
	<path id="Vector" d="M23.43 18.73C23.06 13.96 20.84 10.97 18.88 8.33C17.06 5.89 15.5 3.78 15.5 0.66C15.5 0.41 15.36 0.18 15.13 0.07C14.91 -0.05 14.64 -0.03 14.44 0.12C11.5 2.23 9.04 5.78 8.18 9.17C7.59 11.52 7.51 14.18 7.5 15.93C4.78 15.35 4.16 11.28 4.16 11.23C4.12 11.02 4 10.84 3.81 10.74C3.62 10.64 3.4 10.63 3.2 10.73C3.06 10.8 -0.3 12.5 -0.49 19.31C-0.5 19.54 -0.5 19.77 -0.5 20C-0.5 26.61 4.88 31.99 11.5 31.99C11.5 31.99 11.51 32 11.52 31.99C11.52 31.99 11.53 31.99 11.53 31.99C18.13 31.98 23.5 26.6 23.5 20C23.5 19.66 23.43 18.73 23.43 18.73ZM11.5 30.66C9.29 30.66 7.5 28.75 7.5 26.4C7.5 26.32 7.49 26.24 7.5 26.14C7.53 25.15 7.72 24.47 7.92 24.02C8.31 24.85 9 25.62 10.12 25.62C10.49 25.62 10.79 25.32 10.79 24.95C10.79 24 10.81 22.91 11.05 21.92C11.26 21.04 11.76 20.11 12.39 19.36C12.68 20.33 13.23 21.12 13.77 21.88C14.54 22.98 15.34 24.11 15.48 26.05C15.49 26.16 15.5 26.28 15.5 26.4C15.5 28.75 13.7 30.66 11.5 30.66Z" fill="#FF7010" fill-opacity="1.000000" fill-rule="nonzero"/>
</svg>
