<svg width="26.000000" height="32.000000" viewBox="0 0 26 32" fill="none" xmlns="http://www.w3.org/2000/svg" xmlns:xlink="http://www.w3.org/1999/xlink">
	<desc>
			Created with Pixso.
	</desc>
	<defs/>
	<path id="path4528" d="M5.56 0C5.26 0 5.04 0.23 5.03 0.53L5.03 8.62C5.56 8.82 5.98 9.29 6.07 9.87C6.08 9.89 6.29 11.09 7.16 12.35L7.16 0.53C7.16 0.23 6.92 0 6.63 0L5.56 0ZM18.36 0C18.06 0 17.84 0.23 17.83 0.53L17.83 12.34C18.7 11.07 18.92 9.86 18.92 9.86C19.01 9.28 19.43 8.82 19.96 8.62L19.96 0.53C19.96 0.23 19.72 0 19.43 0L18.36 0ZM8.76 2.13C8.46 2.13 8.23 2.37 8.23 2.66L8.23 13.55C8.77 14.02 9.45 14.42 10.36 14.67L10.36 2.66C10.36 2.37 10.12 2.13 9.83 2.13L8.76 2.13ZM15.16 2.13C14.86 2.13 14.63 2.37 14.63 2.66L14.63 14.67C15.53 14.42 16.21 14.02 16.76 13.54L16.76 2.66C16.76 2.37 16.52 2.13 16.23 2.13L15.16 2.13ZM2.36 4.26C2.06 4.26 1.83 4.5 1.83 4.79L1.83 8.53L3.96 8.53L3.96 4.79C3.96 4.5 3.72 4.26 3.43 4.26L2.36 4.26ZM11.96 4.26C11.66 4.26 11.43 4.5 11.43 4.79L11.43 14.87C11.76 14.91 12.11 14.93 12.49 14.93C12.87 14.93 13.23 14.91 13.56 14.87L13.56 4.79C13.56 4.5 13.32 4.26 13.03 4.26L11.96 4.26ZM21.56 4.26C21.26 4.26 21.03 4.5 21.03 4.79L21.03 8.53L23.16 8.53L23.16 4.79C23.16 4.5 22.92 4.26 22.63 4.26L21.56 4.26ZM-0.31 9.59C-0.63 9.6 -0.88 9.88 -0.83 10.2L1.83 30.46C1.93 31.25 2.55 32 3.43 32L21.56 32C22.44 32 23.06 31.26 23.15 30.46L25.82 10.2C25.87 9.88 25.62 9.59 25.29 9.59L20.49 9.59C20.23 9.6 20.01 9.79 19.97 10.04C19.97 10.04 19.72 11.52 18.66 13.02C17.6 14.51 15.8 16 12.49 16C9.19 16 7.39 14.51 6.33 13.02C5.27 11.52 5.02 10.04 5.02 10.04C4.98 9.78 4.76 9.59 4.49 9.59L-0.31 9.59ZM12.49 19.73C14.84 19.73 16.76 21.64 16.76 23.99C16.76 26.34 14.84 28.26 12.49 28.26C10.14 28.26 8.22 26.34 8.22 23.99C8.22 21.64 10.14 19.73 12.49 19.73Z" fill="#FF7010" fill-opacity="1.000000" fill-rule="nonzero"/>
</svg>
