<svg width="32.000000" height="20.000000" viewBox="0 0 32 20" fill="none" xmlns="http://www.w3.org/2000/svg" xmlns:xlink="http://www.w3.org/1999/xlink">
	<desc>
			Created with Pixso.
	</desc>
	<defs/>
	<path id="Vector" d="M31.48 4.42C31.44 1.97 29.45 0 27.01 0C24.83 0 23.01 1.57 22.62 3.65C21.85 3.99 20.52 4.54 19.73 4.67C18.77 4.83 17.61 4.88 16.29 4.81C13.76 4.69 11.23 3.86 8.98 2.42C6.15 0.61 3.74 0.19 1.16 1.05C0.17 1.38 -0.5 2.32 -0.5 3.39C-0.5 3.74 -0.32 4.06 -0.02 4.23C0.33 4.41 0.65 4.58 0.96 4.74C2.65 5.59 3.59 6.06 4.2 8.66C4.66 10.61 5.47 12.23 6.6 13.5C7.08 14.04 7.62 14.51 8.21 14.92L21.04 14.92C22.98 13.46 24.17 11.25 24.49 8.45C24.69 6.78 24.52 5.31 24.41 4.59C24.41 4.56 24.42 4.52 24.42 4.48C24.42 3.05 25.58 1.89 27.01 1.89C28.44 1.89 29.6 3.05 29.6 4.48C29.6 4.52 29.6 4.57 29.61 4.61C29.61 4.62 29.72 5.56 29.14 6.23C28.66 6.78 27.83 7.06 26.65 7.06C26.13 7.06 25.71 7.49 25.71 8.01C25.71 8.53 26.13 8.96 26.65 8.96C28.39 8.96 29.71 8.46 30.55 7.47C31.59 6.26 31.52 4.79 31.48 4.42Z" fill="#FF7010" fill-opacity="1.000000" fill-rule="nonzero"/>
	<path id="Vector" d="M8.22 16.81C8.16 17.02 8.14 17.23 8.14 17.45L8.14 19.05C8.14 19.57 8.56 20 9.07 20L20.24 20C20.76 20 21.18 19.57 21.18 19.05L21.18 17.45C21.18 17.23 21.15 17.02 21.1 16.81L8.22 16.81Z" fill="#FF7010" fill-opacity="1.000000" fill-rule="nonzero"/>
</svg>
