<svg width="32.000000" height="20.000000" viewBox="0 0 32 20" fill="none" xmlns="http://www.w3.org/2000/svg" xmlns:xlink="http://www.w3.org/1999/xlink">
	<desc>
			Created with Pixso.
	</desc>
	<defs/>
	<path id="Vector" d="M18.95 13.38C14.7 13.38 10.69 14 7.36 15.19C6.53 15.48 5.68 15.63 4.81 15.63C3.74 15.63 2.71 15.4 1.76 14.98C2.54 17.87 5.18 20 8.31 20L23.81 20C26.97 20 29.63 17.82 30.38 14.89C30.08 14.89 29.78 14.85 29.49 14.77C26.27 13.86 22.63 13.38 18.95 13.38Z" fill="#FF7010" fill-opacity="1.000000" fill-rule="nonzero"/>
	<path id="Vector" d="M9.54 12.25C10.87 11.92 12.25 11.67 13.68 11.5C10.9 8.45 10.64 3.34 13.18 0C11.14 0.06 9.14 0.39 7.28 0.97C6.33 1.88 5.66 3.06 5.35 4.35C4.54 7.55 6.44 11.11 9.54 12.25Z" fill="#FF7010" fill-opacity="1.000000" fill-rule="nonzero"/>
	<path id="Vector" d="M6.6 13.12C3.82 11.04 2.37 7.44 3.2 3.85C3.31 3.39 3.45 2.95 3.62 2.53C2.89 2.94 2.19 3.39 1.55 3.9C-2.46 7 -0.18 13.44 4.81 13.42C5.41 13.42 6.01 13.32 6.6 13.12Z" fill="#FF7010" fill-opacity="1.000000" fill-rule="nonzero"/>
	<path id="Vector" d="M25.44 3.22C24.47 3.7 23.68 4.48 23.21 5.47C22.41 7.12 22.61 9.04 23.67 10.48C23.84 10.7 24.44 11.37 24.5 11.52C26.42 11.77 28.3 12.14 30.09 12.65C30.46 12.75 30.86 12.66 31.14 12.39C31.43 12.13 31.55 11.74 31.47 11.36C30.8 8.1 28.59 5.25 25.44 3.22Z" fill="#FF7010" fill-opacity="1.000000" fill-rule="nonzero"/>
	<path id="Vector" d="M16.68 11.23C18.29 11.15 19.91 11.16 21.53 11.25C20.31 9.24 20.15 6.71 21.22 4.51C21.7 3.52 22.39 2.67 23.24 2.01C21.11 1 18.67 0.33 16.08 0.09C12.57 2.98 12.9 8.76 16.68 11.23Z" fill="#FF7010" fill-opacity="1.000000" fill-rule="nonzero"/>
</svg>
